<?xml version="1.0" encoding="utf-8"?>
<!-- Generator: Adobe Illustrator 19.0.0, SVG Export Plug-In . SVG Version: 6.00 Build 0)  -->
<svg version="1.1" id="Layer_1" xmlns="http://www.w3.org/2000/svg" xmlns:xlink="http://www.w3.org/1999/xlink" x="0px" y="0px"
	 viewBox="0 0 1280 160" style="enable-background:new 0 0 1280 160;" xml:space="preserve">
<style type="text/css">
	.st0{fill:#FFFFFF;}
</style>
<g id="XMLID_2_">
	<g id="XMLID_1_">
		<path id="XMLID_19_" class="st0" d="M960.2,148.5c-1.6-3.8-3.2-7.4-4.7-11.1c-1.5-3.7-3.1-7.3-4.6-11c-1.6-3.8-3.2-7.5-4.8-11.3
			c-1.5-3.7-3.1-7.3-4.6-11c-1.6-3.6-3.1-7.3-4.7-10.9c-1.6-3.6-3.1-7.3-4.6-11c-1.5-3.7-3.1-7.3-4.6-11c-1.6-3.6-3.1-7.3-4.7-10.9
			c-1.6-3.8-3.3-7.5-4.9-11.2c-1.6-3.6-3.1-7.3-4.7-10.9c-1.6-3.5-3.1-7.2-4.6-10.7c-0.2,0.1-0.5,0.1-0.7,0.2c0,13.3,0,26.6,0,39.9
			c0,13.2,0,26.5,0,39.7c0,13.3-0.1,26.6-0.2,39.9c-1.4,0.8-2.6,0.6-4,0.3c-0.1-0.6-0.4-1.3-0.4-2c-0.1-1.6-0.1-3.1-0.1-4.7
			c0-26.2,0-52.4-0.1-78.6c0-15.4-0.2-30.8-0.4-46.2c0-1.3,0-2.6,0-4.1c3.2-0.9,6.7-0.6,9.7-0.9c3-0.2,5.6,0.1,8.8,0
			c5.2,12.1,10.4,24.1,15.6,36.1c5.2,12,10.5,24,15.8,36c5.2,12,9.8,24.2,15.4,36.6c2.3-4.4,3.5-8.5,5.2-12.4c1.7-4,3.4-8,5-12
			c1.7-4,3.3-8,4.9-12c1.7-4,3.4-8,5.1-12c1.6-3.9,3.3-7.8,4.9-11.6c1.7-4,3.3-8,5-12s3.3-8,5-12c1.7-4,3.4-8,5.1-11.9
			c1.7-4,3.5-7.9,5.2-11.8c2.5-0.7,11.6-0.7,17.1-0.1c0.6,45,0,90.1,0.5,135.1c-0.4,0.2-0.7,0.5-1,0.5c-5.5,0-11-0.1-16.5-0.2
			c-0.9-1.3-0.6-2.6-0.6-3.9c-0.1-17.9-0.1-35.8-0.1-53.8c0-20.1,0-40.2,0-60.2c0-0.7-0.1-1.4-0.1-2c-0.4,0-0.5-0.1-0.6,0
			c-0.1,0-0.3,0.1-0.3,0.2c-0.2,0.4-0.4,0.9-0.6,1.3c-16.7,39.6-33.5,79.3-50.2,118.9c0,0.1-0.1,0.2-0.2,0.3
			C960.9,148.2,960.7,148.2,960.2,148.5z"/>
		<path id="XMLID_16_" class="st0" d="M1085.9,147.3c-6,0.1-11.6,0.2-17.2,0.3c-1-0.8-0.7-1.8-0.7-2.7c-0.1-18.5-0.2-37-0.2-55.5
			c0-24.6,0.1-49.3,0.1-73.9c0-1.2,0-2.4,0-3.7c0.7-0.2,1.3-0.4,1.8-0.4c16.1,0.1,32.2,0.1,48.3,0.2c5.4,0,10.8,0.5,16.1,1.5
			c14.3,2.7,24,13.4,25.7,27.9c0.8,6.9,0.8,13.7-0.8,20.4c-2.6,11-9,18.9-19.3,23.7c-6.8,3.2-14.1,4.7-21.6,5.3
			c-8,0.6-16.1,0.6-24.1,0.5c-2.5,0-5,0.1-7.4,0.1c-0.9,1.4-0.6,2.8-0.6,4.1c0,9,0.1,18,0.1,27c0,7.1-0.1,14.2-0.1,21.3
			C1086,144.5,1085.9,145.7,1085.9,147.3z M1086.3,16.1c0,1.4-0.1,2.4-0.1,3.5c0,7.9,0,15.9-0.1,23.8c0,13.2-0.1,26.5-0.1,39.7
			c0,1.1-0.4,2.4,0.6,3.5c0.5,0,0.9,0.1,1.4,0.1c7.9-0.2,15.9-0.4,23.8-0.7c1.8-0.1,3.6-0.3,5.4-0.6c6-1.2,11.4-3.8,15.5-8.5
			c3.6-4.2,6-9,7.3-14.3c1.9-7.3,2-14.8,0.7-22.2c-0.5-3.1-1.5-6.1-2.8-8.9c-3.2-7.1-8.6-11.7-16.1-13.9c-3.4-1-6.8-1.4-10.3-1.4
			c-7.7-0.1-15.4-0.1-23.1-0.1C1087.9,15.9,1087.3,16,1086.3,16.1z"/>
		<path id="XMLID_14_" class="st0" d="M1182.9,137.9c0-7.8,0-15.5,0-23.1c0-0.3,0.3-0.6,0.4-0.8c0.9-0.3,1.2,0.4,1.5,0.9
			c1,1.9,1.8,3.9,2.7,5.9c2.2,4.7,5,9,8.5,12.9c7.4,8,16.6,12.2,27.4,12.8c6.2,0.3,12.2-0.9,17.8-3.8c6.5-3.4,10.7-8.7,12.7-15.8
			c1.9-6.8,1.3-13.3-1.8-19.6c-1.7-3.5-4.3-6.4-7.4-8.7c-2.2-1.6-4.5-3.2-7-4.4c-5.2-2.6-10.4-4.9-15.7-7.3
			c-4.3-1.9-8.6-3.7-12.9-5.7c-4.9-2.3-9.6-5-13.9-8.3c-7.6-5.9-11.4-13.8-12.5-23.1c-0.9-7.8,0.5-15.1,4.4-21.9
			c3.2-5.4,7.6-9.6,13.2-12.4c7.3-3.8,15.1-5.4,23.3-5.8c9.1-0.5,18,0.9,26.6,4c4.6,1.7,9.1,3.7,13.7,5.7c0.2,3.2-0.1,5.8-0.1,8.7
			c0.1,2.8,0,5.5,0,8.3c-0.1,2.8,0.3,5.7-0.2,8.8c-0.6-0.2-1.2-0.3-1.3-0.6c-0.6-1-1.1-2.1-1.5-3.2c-2.3-5.5-5.2-10.5-9.1-15.1
			c-3.5-4.2-7.6-7.7-12.7-9.8c-8.9-3.7-17.8-3.5-26.7,0.2c-8.3,3.5-12.7,10.1-13.5,18.9c-1.1,10.7,2.9,19.1,11.9,24.9
			c3.2,2.1,6.7,3.9,10.2,5.4c6.7,3,13.5,5.8,20.2,8.8c5.4,2.4,10.6,5.1,15.4,8.6c3.5,2.6,6.6,5.6,9.1,9.2c5.4,7.9,7,16.8,5.8,26.1
			c-0.4,2.7-1.1,5.4-2.1,8c-2.4,6.4-6.4,11.5-12,15.4c-6.8,4.6-14.3,7.4-22.4,8.4c-18.3,2.3-35.3-1.9-51-11.5
			C1183.5,138.5,1183.3,138.3,1182.9,137.9z"/>
		<path id="XMLID_13_" class="st0" d="M628.3,19.5c0,8,0,15.5,0,23.1c0,0.4,0,0.7-0.1,1.1c-0.1,0.3-0.4,0.8-0.6,0.8
			c-0.4,0-1-0.2-1.2-0.5c-0.6-1.2-1.1-2.4-1.6-3.6c-2.8-6.7-6.5-12.9-11.9-17.9c-7.9-7.4-17.3-10-27.9-8.5
			c-3.7,0.5-7.3,1.5-10.6,3.3c-5.8,3.2-9.6,7.9-11,14.4c-0.9,3.9-1.3,7.8-0.5,11.8c1.1,5.3,3.5,9.7,7.5,13.3c3,2.7,6.3,4.9,9.8,6.6
			c4.9,2.4,9.8,4.6,14.7,6.8c6.8,3,13.7,5.9,20.1,9.8c1.6,1,3.3,2,4.9,3.1c8.1,5.6,13,13.2,14.9,23c1.2,6.5,0.9,12.9-1.2,19.2
			c-3,8.9-9.2,15.1-17.4,19.3c-6.8,3.5-14.2,5.3-21.8,6c-13.1,1.2-25.6-1.3-37.6-6.7c-2.8-1.3-5.5-3-8.2-4.5
			c-1.4-0.8-2.1-1.8-2.1-3.5c0.1-6.7,0.1-13.5,0.2-20.2c0-0.5,0.2-1.1,0.4-2c0.6,0.6,1,0.8,1.2,1.2c1,2,1.9,4.2,3,6.2
			c1.6,3.1,3.2,6.2,5.2,9.1c6,8.7,14.4,13.9,24.9,15.7c7,1.2,13.9,0.7,20.6-1.9c9.2-3.6,15.1-10.1,16.7-20
			c1.3-8.3-0.7-15.7-6.4-22.1c-2.3-2.6-5-4.8-8.2-6.5c-3.7-1.9-7.5-3.8-11.3-5.6c-6.6-3-13.2-5.7-19.8-8.7
			c-4.7-2.1-9.2-4.8-13.3-7.9c-6.6-4.9-11.1-11.4-12.8-19.5c-3.4-16.3,3.3-32.5,20.4-39.8c6.5-2.8,13.3-4.1,20.3-4.4
			c11.9-0.5,23.1,2.2,34,6.9C623.8,17.2,626,18.3,628.3,19.5z"/>
		<path id="XMLID_8_" class="st0" d="M873.1,147.1c-0.5,0.1-0.8,0.3-1.1,0.3c-6,0-12,0-18.2,0c-5.1-13.8-10.5-27.5-16-40.9
			c-2.7-0.4-52.8-0.3-55.7,0c-1.1,0.8-1.4,2.2-1.9,3.4c-4.9,11.5-9.7,23-14.6,34.5c-0.4,1-0.9,1.9-1.4,3c-1.4,0-2.7,0-3.8,0
			c-0.7-0.9-0.2-1.5,0.1-2.1c9.5-23.1,18.9-46.3,28.4-69.4c7.8-19.1,15.7-38.2,23.6-57.4c1-2.3,2-4.6,3.1-6.9c0.3-0.7,0.9-1.3,1.3-2
			c1.4,0.5,1.6,1.6,2.1,2.6c1.7,4,3.4,7.9,5.1,11.9c8.5,20.9,17,41.9,25.3,62.8c6.3,15.7,12.4,31.5,18.6,47.3
			c1.5,3.8,3.1,7.6,4.6,11.3C872.8,146.1,872.9,146.6,873.1,147.1z M835.5,101.8c-1-4.9-18.9-50.4-24.6-62.7c-0.2-0.5-0.6-0.9-1-1.5
			c-0.4,0.5-0.7,0.7-0.8,1c-8.3,20.6-16.7,41.2-25,61.8c-0.1,0.3,0,0.7-0.1,1.3C801.2,101.9,818.2,101.8,835.5,101.8z"/>
		<path id="XMLID_7_" class="st0" d="M714,147.3c-6.2,0-12.1,0-18.2,0c-0.1-1.1-0.2-2.2-0.2-3.2c0-4.9,0-87.4-0.1-123.7
			c0-1.4,0-2.8-0.1-4c-1-1-2-0.8-3-0.8c-13.2,0.4-26.4,1.3-39.3,4.8c-0.3,0.1-0.7,0-1.2-0.1c-0.4-2.8-0.2-5.5,0.1-8.4
			c0.8-0.1,1.5-0.3,2.1-0.3c16.1,0,32.2-0.1,48.3-0.1c16.5,0,32.9,0,49.4,0.1c1.2,0,2.4,0.1,3.8,0.1c0.5,2.8-0.1,5.5,0,8.5
			c-8.8-2.8-17.7-3.4-26.5-4c-4.8-0.3-9.6-0.3-14.4-0.3c-0.2,0-0.4,0.2-0.9,0.5c-0.1,2.2,0.1,4.6,0,6.9
			C714,25.6,714.4,144.5,714,147.3z"/>
	</g>
	<g id="XMLID_20_">
		<path id="XMLID_15_" class="st0" d="M13.3,24.1c-0.7,3.8-0.4,7.5-0.4,11.2C12.8,39.1,13,145.1,12.6,149c-1.3,0-2.4,0-3.8,0
			c-0.1-1.2-0.3-2.3-0.3-3.3c0-5.1,0-10.1-0.1-15.2c0-31.5-0.1-63-0.1-94.5c0-7.3,0.1-14.7,0.1-22c0-1.1,0.1-2.1,0.2-3.1
			c2.5-0.5,13.8-0.6,18.3-0.3c0.6,0.9,1.3,1.8,2,2.8c9.2,14.2,18.5,28.4,27.7,42.6c11.6,17.9,23.2,35.7,34.7,53.6
			c3.7,5.8,7.4,11.5,11.1,17.3c0.5,0.8,1.1,1.5,1.9,2.6c0.3-0.8,0.5-1.2,0.5-1.6c0.1-1.7,0.1-3.4,0.1-5c0-35,0.1-70,0.1-105
			c0-2.4,0.1-4.8,0.1-7.2c1.4-0.8,2.6-0.5,3.9-0.1c0.6,1.4,0.4,2.9,0.4,4.3c0.1,13.8,0.1,27.7,0.1,41.5c0,23.7-0.1,47.4-0.1,71.1
			c0,5.9,0.1,11.8,0.2,17.7c0,1.2-0.1,2.4-0.1,3.4c-0.4,0.2-0.6,0.4-0.8,0.4c-4.7,0-9.4,0-14,0C68.4,106.8,40.8,65.5,13.3,24.1z"/>
		<path id="XMLID_12_" class="st0" d="M319.8,118.8c1.6,1.2,1.8,2.3,1.2,3.5c-0.2,0.4-0.5,0.8-0.8,1.2c-8.8,11.7-20,20-34,24.4
			c-10,3.1-20.1,3.4-30.3,1.5c-9.5-1.8-18.1-5.5-25.7-11.5c-7.8-6.2-13.3-14.1-17.4-23.1c-4.3-9.4-6.3-19.4-7-29.7
			c-0.9-12.3,0.7-24.3,5-35.8c5.4-14.2,14.3-25.5,27.9-32.8c5.7-3.1,11.7-4.9,18-6c16.1-2.8,31.6-0.2,46.6,5.7
			c4.9,1.9,9.4,4.8,13.9,7.6c0,8.4,0,16.7,0,25c-0.6,0.4-1.1,0.1-1.4-0.5c-0.4-0.9-0.8-1.8-1.1-2.7c-1.8-4.2-4-8.2-6.5-12
			c-9.7-14.6-28-22.3-46-19.1C253.5,16,246,19.8,239.8,26c-3.6,3.6-6.2,8-8.4,12.5c-3.2,6.7-5.1,13.7-6.2,21
			c-2.1,14.6-1.3,29,2.8,43.2c1.8,6.2,4.6,11.9,8,17.3c4.4,6.9,10.4,11.9,17.8,15.2c9.7,4.4,19.8,5.5,30.3,4.1
			c6.1-0.8,12-2.2,17.5-5.1c5.8-3,10.8-7.2,15.1-12.1C317.8,121.1,318.7,120.1,319.8,118.8z"/>
		<path id="XMLID_11_" class="st0" d="M354.7,10.6c1-0.1,1.6-0.2,2.2-0.2c19.6,0,39.2-0.1,58.8,0c7.7,0,15.4,0.2,23.1,0.3
			c1.3,0,2.7-0.1,3.9,0.6c0.3,0.2,0.3,2.6,0.3,3.9c0,1.2,0,2.4,0,3.8c-0.6,0-1.2,0-1.7-0.1c-10.5-2.9-21.3-3.8-32.1-3.9
			c-11.2-0.1-22.4-0.2-33.6-0.2c-0.8,0-1.6,0.1-2.6,0.2c-0.1,0.7-0.2,1.3-0.2,1.9c0,19.5,0,38.9,0,58.6c0.8,0.1,0,0.4,6.5,0.4
			c15.5-0.1,31-0.2,46.5-0.3c1.3,0,2.6,0.1,4,0.1c0.8,1.4,0.3,3.7,0.1,4.2c-1.4,0.3-2.4,0.2-3.7,0.2c-15.9,0-31.7-0.1-47.6-0.1
			c-1.8,0-3.6-0.1-5.2,0.1c-0.9,0.2-0.7,2.8-0.7,4.1c0,7.6,0,15.2,0,22.7c0,11.5,0.1,23.1,0.2,34.6c0,1.1,0.1,2.1,0.1,3.2
			c1.4,0.9,2.9,0.6,4.3,0.6c8.8-0.1,17.6-0.1,26.3-0.4c8.9-0.3,17.8-0.9,26.6-1.6c4.4-0.3,8.8-0.8,13.3-2.2c0.2,2.6,0.1,5.1-0.1,7.7
			c-0.7,0.3-1.6,0.4-2.4,0.4c-17.8,0.1-35.6,0.3-53.4,0.3c-9.9,0-19.7-0.1-29.6-0.2c-0.9,0-1.9-0.1-3-0.1c-0.1-0.9-0.3-1.7-0.3-2.5
			c0-4,0.1-7.9,0.1-11.9c0-39.2-0.1-78.4-0.2-117.6C354.6,15,354.6,13,354.7,10.6z"/>
		<path id="XMLID_6_" class="st0" d="M152.3,10.7c6.3,0,12,0,17.9,0c0.2,0.7,0.4,1.4,0.5,2.1c0.1,0.8,0,1.7,0,2.5
			c-0.1,38.7-0.2,77.4-0.3,116.1c0,4.8,0.1,9.6,0.1,14.4c0,0.9-0.1,1.9-0.1,2.8c-2.4,0.5-13.5,0.6-17.7,0.2
			c-0.9-0.7-0.6-1.8-0.6-2.7c0-6.5,0-13,0-19.5c0-37,0-74.1,0.1-111.1C152.2,14,152.3,12.5,152.3,10.7z"/>
	</g>
</g>
</svg>
