<?xml version="1.0" encoding="utf-8"?>
<!-- Generator: Adobe Illustrator 19.0.0, SVG Export Plug-In . SVG Version: 6.00 Build 0)  -->
<svg version="1.1" id="Layer_1" xmlns="http://www.w3.org/2000/svg" xmlns:xlink="http://www.w3.org/1999/xlink" x="0px" y="0px"
	 viewBox="0 0 140 100" style="enable-background:new 0 0 140 100;" xml:space="preserve">
<style type="text/css">
	.st0{fill:#FFFFFF;}
</style>
<path id="XMLID_4_" class="st0" d="M139,3.1c0-0.2-0.1-0.5-0.1-0.6l-0.2-1h-3.9h-13.1c-4.3,0-8.6,0-13,0c-6.3,0-12.7,0-19-0.1h-0.3
	c-2,0-3.9,0.1-5.8,0.4c-3.6,0.5-6.8,1.8-9.5,3.8c-2.8,2.1-4.7,4.5-5.8,7.4c-2.2-3.1-4-6.7-5.7-10.2l-0.5-1.1l-0.7-0.1
	c-0.2,0-0.3,0-0.5,0c-6.6,0-13.3,0-19.9,0c-0.4,0-0.6,0.1-0.7,0.2L40,2l-0.2,0.3c-0.2,0.5-0.2,0.9-0.1,1.3c0,0.1,0,0.2,0,0.2v0.6
	c0,3.6,0,7.2,0,10.8c0,21.5,0,43,0,64.4v11.7c0,1.8,0,3.6,0,5.4c0,0.2,0,0.5,0.1,0.7l0.1,1.1l1.2,0.1c0.3,0,0.5,0,0.7,0h12.3
	c6.4,0,12.8,0,19.2,0c2.3,0,4.6,0,7,0c2.5,0,5,0,7.5,0c1.4,0,2.9,0,4.8-0.1c3.6-0.2,7.2-1.1,10.8-2.6s6.6-3.8,9-6.7
	c0.3-0.4,0.6-0.8,0.8-1.2c1.1,3.1,2.2,6.4,3,9.7l0.1,0.5l0.6,0.2c0.1,0,0.3,0.1,0.6,0.1c6.6,0,13.2,0,19.8,0c0.2,0,0.4,0,0.5-0.1
	l0.9-0.2l0.1-1.1c0-0.2,0-0.5,0-0.7v-4.9c0-5.2,0-10.4,0-15.7c0-18.7,0-37.4,0.1-56V6.6C139,5.6,139,4.4,139,3.1z M110.8,83.8
	L110.8,83.8c-0.5,1.3-1.2,2.5-2.2,3.6c-1.7,1.9-3.8,3.4-6.5,4.7c-4.1,1.9-8.6,2.8-13.4,2.6c-3.4-0.2-6.4-0.7-9-1.6
	c-1.5-0.5-3.1-1.3-4.7-2.4c-3.6-2.4-6.5-5.4-8.5-8.9c-1.6-2.8-2.8-5.9-3.6-9.3l-0.1-0.4c-0.1-0.2-0.1-0.5-0.1-0.7l-0.4-1.9h-3.6
	v24.8c-3,0.1-8.8,0.1-14,0V10.5v0.1c3.2,6.7,7,13.1,11.5,19.3c4.3,5.9,9.4,11.3,15.1,16c2.8,2.4,5.9,4.4,8.7,6.3
	c1.6,1,3.1,2,4.7,3.1c2.1,1.3,4.1,2.7,6.2,4c4.7,3.1,8.6,6.3,12,9.8c2.3,2.4,4.2,4.6,5.7,7c1.1,1.7,1.8,3.4,2.2,5.1
	C111.2,82.1,111.1,82.9,110.8,83.8z M133.9,87.5c-1.9-4.4-4.1-9-6.5-13.6c-3.1-5.9-6.7-11.2-10.6-16c-2.9-3.5-6.3-6.9-10.2-10.1
	c-3.7-3.1-7.7-6-12.4-8.9l-1.1-0.7c-3-1.9-6.1-3.8-9-5.9c-3.9-2.8-6.7-5.5-9-8.4c-1-1.4-1.8-2.5-2.4-3.6c-1.4-2.3-1.4-4.7,0-7.2
	c1.3-2.4,3.3-4.2,6.1-5.6c1.7-0.9,3.6-1.5,5.9-1.8c1.6-0.2,3.2-0.4,4.8-0.4c2.9,0,5.8,0.4,8.6,1.2c1.8,0.5,3.6,1.3,5.2,2.3
	c3.4,2.1,6.1,4.7,8.1,7.7c1.9,2.8,3.3,6,4,9.4c0,0.2,0.1,0.4,0.1,0.6c0,0.1,0,0.3,0.1,0.4c0,0.2,0.1,0.5,0.1,0.7l0.1,0.4
	c0,0.2,0.3,1.8,0.3,1.8l0.1,0.8h3.6V5.8c0.5,0,1.1,0,1.6,0H134v81.7H133.9z"/>
</svg>
